<mxfile host="app.diagrams.net" modified="2024-03-02T15:25:01.918Z" agent="Mozilla/5.0 (Windows NT 10.0; Win64; x64) AppleWebKit/537.36 (KHTML, like Gecko) Chrome/122.0.0.0 Safari/537.36" etag="oNB30qSpVezo82cI4Zej" version="24.0.0" type="device">
  <diagram name="Página-1" id="o8Yhidtuiw6qxnReTGiz">
    <mxGraphModel dx="2140" dy="726" grid="1" gridSize="10" guides="1" tooltips="1" connect="1" arrows="1" fold="1" page="1" pageScale="1" pageWidth="827" pageHeight="1169" math="0" shadow="0">
      <root>
        <mxCell id="0" />
        <mxCell id="1" parent="0" />
        <mxCell id="x13av6bWeKEdBmR4gBfC-1" value="Prescrição" style="rounded=0;whiteSpace=wrap;html=1;" parent="1" vertex="1">
          <mxGeometry x="280" y="730" width="120" height="60" as="geometry" />
        </mxCell>
        <mxCell id="x13av6bWeKEdBmR4gBfC-3" value="Médico" style="rounded=0;whiteSpace=wrap;html=1;" parent="1" vertex="1">
          <mxGeometry x="280" y="450" width="120" height="60" as="geometry" />
        </mxCell>
        <mxCell id="x13av6bWeKEdBmR4gBfC-4" value="Paciente" style="rounded=0;whiteSpace=wrap;html=1;" parent="1" vertex="1">
          <mxGeometry x="-55" y="592" width="120" height="60" as="geometry" />
        </mxCell>
        <mxCell id="x13av6bWeKEdBmR4gBfC-5" value="Fármaco" style="rounded=0;whiteSpace=wrap;html=1;" parent="1" vertex="1">
          <mxGeometry x="610" y="730" width="120" height="60" as="geometry" />
        </mxCell>
        <mxCell id="x13av6bWeKEdBmR4gBfC-6" value="Farmacêutica/o" style="rounded=0;whiteSpace=wrap;html=1;" parent="1" vertex="1">
          <mxGeometry x="704" y="495" width="120" height="60" as="geometry" />
        </mxCell>
        <mxCell id="x13av6bWeKEdBmR4gBfC-8" value="Farmácia" style="rounded=0;whiteSpace=wrap;html=1;" parent="1" vertex="1">
          <mxGeometry x="70" y="476" width="120" height="60" as="geometry" />
        </mxCell>
        <mxCell id="x13av6bWeKEdBmR4gBfC-9" value="&lt;u&gt;Número&lt;/u&gt;" style="ellipse;whiteSpace=wrap;html=1;" parent="1" vertex="1">
          <mxGeometry x="360" y="830" width="70" height="40" as="geometry" />
        </mxCell>
        <mxCell id="x13av6bWeKEdBmR4gBfC-10" value="Data" style="ellipse;whiteSpace=wrap;html=1;" parent="1" vertex="1">
          <mxGeometry x="260" y="830" width="70" height="40" as="geometry" />
        </mxCell>
        <mxCell id="x13av6bWeKEdBmR4gBfC-11" value="&lt;u&gt;ID&lt;/u&gt;" style="ellipse;whiteSpace=wrap;html=1;" parent="1" vertex="1">
          <mxGeometry x="240" y="385" width="70" height="40" as="geometry" />
        </mxCell>
        <mxCell id="x13av6bWeKEdBmR4gBfC-12" value="Nome" style="ellipse;whiteSpace=wrap;html=1;" parent="1" vertex="1">
          <mxGeometry x="370" y="385" width="70" height="40" as="geometry" />
        </mxCell>
        <mxCell id="x13av6bWeKEdBmR4gBfC-13" value="Especialidade" style="ellipse;whiteSpace=wrap;html=1;" parent="1" vertex="1">
          <mxGeometry x="295" y="325" width="90" height="50" as="geometry" />
        </mxCell>
        <mxCell id="x13av6bWeKEdBmR4gBfC-15" value="&lt;u&gt;Número de utente&lt;/u&gt;" style="ellipse;whiteSpace=wrap;html=1;" parent="1" vertex="1">
          <mxGeometry x="-190" y="518" width="90" height="50" as="geometry" />
        </mxCell>
        <mxCell id="x13av6bWeKEdBmR4gBfC-16" value="Data de nascimento" style="ellipse;whiteSpace=wrap;html=1;" parent="1" vertex="1">
          <mxGeometry x="-210" y="592" width="90" height="50" as="geometry" />
        </mxCell>
        <mxCell id="x13av6bWeKEdBmR4gBfC-18" value="Nome comercial" style="ellipse;whiteSpace=wrap;html=1;" parent="1" vertex="1">
          <mxGeometry x="722" y="840" width="70" height="40" as="geometry" />
        </mxCell>
        <mxCell id="x13av6bWeKEdBmR4gBfC-19" value="&lt;u&gt;Fórmula&lt;/u&gt;" style="ellipse;whiteSpace=wrap;html=1;" parent="1" vertex="1">
          <mxGeometry x="635" y="848" width="70" height="40" as="geometry" />
        </mxCell>
        <mxCell id="x13av6bWeKEdBmR4gBfC-22" value="&lt;u&gt;Número de registo nacional&lt;/u&gt;" style="ellipse;whiteSpace=wrap;html=1;" parent="1" vertex="1">
          <mxGeometry x="754" y="365" width="90" height="60" as="geometry" />
        </mxCell>
        <mxCell id="x13av6bWeKEdBmR4gBfC-23" value="Nome" style="ellipse;whiteSpace=wrap;html=1;" parent="1" vertex="1">
          <mxGeometry x="860" y="410" width="70" height="40" as="geometry" />
        </mxCell>
        <mxCell id="x13av6bWeKEdBmR4gBfC-24" value="Endereço" style="ellipse;whiteSpace=wrap;html=1;" parent="1" vertex="1">
          <mxGeometry x="930" y="515" width="70" height="40" as="geometry" />
        </mxCell>
        <mxCell id="x13av6bWeKEdBmR4gBfC-25" value="&lt;u&gt;Telefone&lt;/u&gt;" style="ellipse;whiteSpace=wrap;html=1;" parent="1" vertex="1">
          <mxGeometry x="910" y="450" width="70" height="40" as="geometry" />
        </mxCell>
        <mxCell id="x13av6bWeKEdBmR4gBfC-26" value="&lt;u&gt;NIF&lt;/u&gt;" style="ellipse;whiteSpace=wrap;html=1;" parent="1" vertex="1">
          <mxGeometry x="-90" y="450" width="70" height="40" as="geometry" />
        </mxCell>
        <mxCell id="x13av6bWeKEdBmR4gBfC-27" value="Nome" style="ellipse;whiteSpace=wrap;html=1;" parent="1" vertex="1">
          <mxGeometry x="105" y="385" width="50" height="25" as="geometry" />
        </mxCell>
        <mxCell id="x13av6bWeKEdBmR4gBfC-28" value="Endereço" style="ellipse;whiteSpace=wrap;html=1;" parent="1" vertex="1">
          <mxGeometry x="20" y="380" width="70" height="30" as="geometry" />
        </mxCell>
        <mxCell id="x13av6bWeKEdBmR4gBfC-29" value="Endereço" style="ellipse;whiteSpace=wrap;html=1;" parent="1" vertex="1">
          <mxGeometry x="-180" y="672" width="70" height="30" as="geometry" />
        </mxCell>
        <mxCell id="x13av6bWeKEdBmR4gBfC-30" value="&lt;u&gt;Telefone&lt;/u&gt;" style="ellipse;whiteSpace=wrap;html=1;" parent="1" vertex="1">
          <mxGeometry x="-70" y="388" width="70" height="40" as="geometry" />
        </mxCell>
        <mxCell id="x13av6bWeKEdBmR4gBfC-32" value="" style="endArrow=none;html=1;rounded=0;entryX=0.25;entryY=0;entryDx=0;entryDy=0;exitX=1;exitY=1;exitDx=0;exitDy=0;" parent="1" source="x13av6bWeKEdBmR4gBfC-30" target="x13av6bWeKEdBmR4gBfC-8" edge="1">
          <mxGeometry width="50" height="50" relative="1" as="geometry">
            <mxPoint x="-130" y="612" as="sourcePoint" />
            <mxPoint x="-80" y="562" as="targetPoint" />
          </mxGeometry>
        </mxCell>
        <mxCell id="x13av6bWeKEdBmR4gBfC-33" value="" style="endArrow=none;html=1;rounded=0;entryX=0;entryY=0.25;entryDx=0;entryDy=0;exitX=1;exitY=0.5;exitDx=0;exitDy=0;" parent="1" source="x13av6bWeKEdBmR4gBfC-26" target="x13av6bWeKEdBmR4gBfC-8" edge="1">
          <mxGeometry width="50" height="50" relative="1" as="geometry">
            <mxPoint x="65" y="612" as="sourcePoint" />
            <mxPoint x="80" y="562" as="targetPoint" />
          </mxGeometry>
        </mxCell>
        <mxCell id="x13av6bWeKEdBmR4gBfC-35" value="" style="endArrow=none;html=1;rounded=0;entryX=0.5;entryY=0;entryDx=0;entryDy=0;exitX=0.5;exitY=1;exitDx=0;exitDy=0;" parent="1" source="x13av6bWeKEdBmR4gBfC-28" target="x13av6bWeKEdBmR4gBfC-8" edge="1">
          <mxGeometry width="50" height="50" relative="1" as="geometry">
            <mxPoint x="230" y="558" as="sourcePoint" />
            <mxPoint x="170" y="532" as="targetPoint" />
          </mxGeometry>
        </mxCell>
        <mxCell id="x13av6bWeKEdBmR4gBfC-36" value="" style="endArrow=none;html=1;rounded=0;entryX=1;entryY=0;entryDx=0;entryDy=0;exitX=0;exitY=0.75;exitDx=0;exitDy=0;" parent="1" source="x13av6bWeKEdBmR4gBfC-4" target="x13av6bWeKEdBmR4gBfC-29" edge="1">
          <mxGeometry width="50" height="50" relative="1" as="geometry">
            <mxPoint x="105" y="827" as="sourcePoint" />
            <mxPoint x="65" y="842" as="targetPoint" />
          </mxGeometry>
        </mxCell>
        <mxCell id="x13av6bWeKEdBmR4gBfC-37" value="" style="endArrow=none;html=1;rounded=0;entryX=1;entryY=0.5;entryDx=0;entryDy=0;exitX=0;exitY=0.5;exitDx=0;exitDy=0;" parent="1" source="x13av6bWeKEdBmR4gBfC-4" target="x13av6bWeKEdBmR4gBfC-16" edge="1">
          <mxGeometry width="50" height="50" relative="1" as="geometry">
            <mxPoint x="-60" y="632" as="sourcePoint" />
            <mxPoint x="95" y="627" as="targetPoint" />
          </mxGeometry>
        </mxCell>
        <mxCell id="x13av6bWeKEdBmR4gBfC-38" value="" style="endArrow=none;html=1;rounded=0;entryX=0.5;entryY=1;entryDx=0;entryDy=0;exitX=0;exitY=0.25;exitDx=0;exitDy=0;fontStyle=1" parent="1" source="x13av6bWeKEdBmR4gBfC-4" target="x13av6bWeKEdBmR4gBfC-15" edge="1">
          <mxGeometry width="50" height="50" relative="1" as="geometry">
            <mxPoint x="75" y="632" as="sourcePoint" />
            <mxPoint x="105" y="637" as="targetPoint" />
          </mxGeometry>
        </mxCell>
        <mxCell id="x13av6bWeKEdBmR4gBfC-39" value="" style="endArrow=none;html=1;rounded=0;entryX=0.5;entryY=1;entryDx=0;entryDy=0;exitX=0.5;exitY=0;exitDx=0;exitDy=0;" parent="1" source="x13av6bWeKEdBmR4gBfC-3" target="x13av6bWeKEdBmR4gBfC-13" edge="1">
          <mxGeometry width="50" height="50" relative="1" as="geometry">
            <mxPoint x="350" y="670" as="sourcePoint" />
            <mxPoint x="383" y="643" as="targetPoint" />
          </mxGeometry>
        </mxCell>
        <mxCell id="x13av6bWeKEdBmR4gBfC-40" value="" style="endArrow=none;html=1;rounded=0;entryX=0.5;entryY=1;entryDx=0;entryDy=0;exitX=0.75;exitY=0;exitDx=0;exitDy=0;" parent="1" source="x13av6bWeKEdBmR4gBfC-3" target="x13av6bWeKEdBmR4gBfC-12" edge="1">
          <mxGeometry width="50" height="50" relative="1" as="geometry">
            <mxPoint x="70" y="470" as="sourcePoint" />
            <mxPoint x="120" y="420" as="targetPoint" />
          </mxGeometry>
        </mxCell>
        <mxCell id="x13av6bWeKEdBmR4gBfC-41" value="" style="endArrow=none;html=1;rounded=0;entryX=0.5;entryY=1;entryDx=0;entryDy=0;exitX=0.25;exitY=0;exitDx=0;exitDy=0;" parent="1" source="x13av6bWeKEdBmR4gBfC-3" target="x13av6bWeKEdBmR4gBfC-11" edge="1">
          <mxGeometry width="50" height="50" relative="1" as="geometry">
            <mxPoint x="350" y="480" as="sourcePoint" />
            <mxPoint x="380" y="414" as="targetPoint" />
          </mxGeometry>
        </mxCell>
        <mxCell id="x13av6bWeKEdBmR4gBfC-42" value="" style="endArrow=none;html=1;rounded=0;entryX=1;entryY=0.5;entryDx=0;entryDy=0;exitX=0;exitY=1;exitDx=0;exitDy=0;" parent="1" source="x13av6bWeKEdBmR4gBfC-25" target="x13av6bWeKEdBmR4gBfC-6" edge="1">
          <mxGeometry width="50" height="50" relative="1" as="geometry">
            <mxPoint x="974" y="505" as="sourcePoint" />
            <mxPoint x="1024" y="455" as="targetPoint" />
          </mxGeometry>
        </mxCell>
        <mxCell id="x13av6bWeKEdBmR4gBfC-43" value="" style="endArrow=none;html=1;rounded=0;entryX=1;entryY=0.75;entryDx=0;entryDy=0;exitX=0;exitY=0.5;exitDx=0;exitDy=0;" parent="1" source="x13av6bWeKEdBmR4gBfC-24" target="x13av6bWeKEdBmR4gBfC-6" edge="1">
          <mxGeometry width="50" height="50" relative="1" as="geometry">
            <mxPoint x="774" y="605" as="sourcePoint" />
            <mxPoint x="774" y="565" as="targetPoint" />
          </mxGeometry>
        </mxCell>
        <mxCell id="x13av6bWeKEdBmR4gBfC-44" value="" style="endArrow=none;html=1;rounded=0;entryX=1;entryY=0;entryDx=0;entryDy=0;exitX=0;exitY=1;exitDx=0;exitDy=0;" parent="1" source="x13av6bWeKEdBmR4gBfC-23" target="x13av6bWeKEdBmR4gBfC-6" edge="1">
          <mxGeometry width="50" height="50" relative="1" as="geometry">
            <mxPoint x="910" y="460" as="sourcePoint" />
            <mxPoint x="714" y="565" as="targetPoint" />
          </mxGeometry>
        </mxCell>
        <mxCell id="x13av6bWeKEdBmR4gBfC-45" value="" style="endArrow=none;html=1;rounded=0;entryX=0.25;entryY=0;entryDx=0;entryDy=0;exitX=0.5;exitY=1;exitDx=0;exitDy=0;" parent="1" source="x13av6bWeKEdBmR4gBfC-22" target="x13av6bWeKEdBmR4gBfC-6" edge="1">
          <mxGeometry width="50" height="50" relative="1" as="geometry">
            <mxPoint x="684" y="545" as="sourcePoint" />
            <mxPoint x="714" y="535" as="targetPoint" />
          </mxGeometry>
        </mxCell>
        <mxCell id="x13av6bWeKEdBmR4gBfC-46" value="" style="endArrow=none;html=1;rounded=0;entryX=0.5;entryY=0;entryDx=0;entryDy=0;exitX=0.5;exitY=1;exitDx=0;exitDy=0;" parent="1" source="DTTesXFCx7pwk1oEU2a9-19" target="x13av6bWeKEdBmR4gBfC-19" edge="1">
          <mxGeometry width="50" height="50" relative="1" as="geometry">
            <mxPoint x="890" y="760" as="sourcePoint" />
            <mxPoint x="940" y="710" as="targetPoint" />
          </mxGeometry>
        </mxCell>
        <mxCell id="x13av6bWeKEdBmR4gBfC-47" value="" style="endArrow=none;html=1;rounded=0;entryX=0.75;entryY=1;entryDx=0;entryDy=0;exitX=0.5;exitY=0;exitDx=0;exitDy=0;" parent="1" source="x13av6bWeKEdBmR4gBfC-18" target="DTTesXFCx7pwk1oEU2a9-19" edge="1">
          <mxGeometry width="50" height="50" relative="1" as="geometry">
            <mxPoint x="620" y="800" as="sourcePoint" />
            <mxPoint x="600" y="810" as="targetPoint" />
          </mxGeometry>
        </mxCell>
        <mxCell id="x13av6bWeKEdBmR4gBfC-48" value="" style="endArrow=none;html=1;rounded=0;entryX=0.5;entryY=0;entryDx=0;entryDy=0;exitX=0.75;exitY=1;exitDx=0;exitDy=0;" parent="1" source="x13av6bWeKEdBmR4gBfC-1" target="x13av6bWeKEdBmR4gBfC-9" edge="1">
          <mxGeometry width="50" height="50" relative="1" as="geometry">
            <mxPoint x="110" y="500" as="sourcePoint" />
            <mxPoint x="380" y="450" as="targetPoint" />
          </mxGeometry>
        </mxCell>
        <mxCell id="x13av6bWeKEdBmR4gBfC-49" value="" style="endArrow=none;html=1;rounded=0;exitX=0.25;exitY=1;exitDx=0;exitDy=0;entryX=0.5;entryY=0;entryDx=0;entryDy=0;" parent="1" source="x13av6bWeKEdBmR4gBfC-1" target="x13av6bWeKEdBmR4gBfC-10" edge="1">
          <mxGeometry width="50" height="50" relative="1" as="geometry">
            <mxPoint x="120" y="510" as="sourcePoint" />
            <mxPoint x="270" y="770" as="targetPoint" />
          </mxGeometry>
        </mxCell>
        <mxCell id="DTTesXFCx7pwk1oEU2a9-1" value="Passa" style="rhombus;whiteSpace=wrap;html=1;" vertex="1" parent="1">
          <mxGeometry x="300" y="570" width="80" height="80" as="geometry" />
        </mxCell>
        <mxCell id="DTTesXFCx7pwk1oEU2a9-2" value="" style="endArrow=none;html=1;rounded=0;entryX=0.5;entryY=1;entryDx=0;entryDy=0;exitX=0.5;exitY=0;exitDx=0;exitDy=0;" edge="1" parent="1" source="x13av6bWeKEdBmR4gBfC-1" target="DTTesXFCx7pwk1oEU2a9-1">
          <mxGeometry width="50" height="50" relative="1" as="geometry">
            <mxPoint x="330" y="790" as="sourcePoint" />
            <mxPoint x="380" y="740" as="targetPoint" />
          </mxGeometry>
        </mxCell>
        <mxCell id="DTTesXFCx7pwk1oEU2a9-3" value="" style="endArrow=none;html=1;rounded=0;entryX=0.5;entryY=1;entryDx=0;entryDy=0;exitX=0.5;exitY=0;exitDx=0;exitDy=0;" edge="1" parent="1" source="DTTesXFCx7pwk1oEU2a9-1" target="x13av6bWeKEdBmR4gBfC-3">
          <mxGeometry width="50" height="50" relative="1" as="geometry">
            <mxPoint x="330" y="790" as="sourcePoint" />
            <mxPoint x="380" y="740" as="targetPoint" />
          </mxGeometry>
        </mxCell>
        <mxCell id="DTTesXFCx7pwk1oEU2a9-4" value="N" style="text;html=1;align=center;verticalAlign=middle;resizable=0;points=[];autosize=1;strokeColor=none;fillColor=none;" vertex="1" parent="1">
          <mxGeometry x="337" y="704" width="30" height="30" as="geometry" />
        </mxCell>
        <mxCell id="DTTesXFCx7pwk1oEU2a9-5" value="1" style="text;html=1;align=center;verticalAlign=middle;resizable=0;points=[];autosize=1;strokeColor=none;fillColor=none;" vertex="1" parent="1">
          <mxGeometry x="335" y="506" width="30" height="30" as="geometry" />
        </mxCell>
        <mxCell id="DTTesXFCx7pwk1oEU2a9-6" value="" style="endArrow=none;html=1;rounded=0;edgeStyle=orthogonalEdgeStyle;entryX=0.5;entryY=1;entryDx=0;entryDy=0;exitX=0;exitY=0.5;exitDx=0;exitDy=0;" edge="1" parent="1" source="x13av6bWeKEdBmR4gBfC-1" target="x13av6bWeKEdBmR4gBfC-4">
          <mxGeometry width="50" height="50" relative="1" as="geometry">
            <mxPoint x="330" y="790" as="sourcePoint" />
            <mxPoint x="380" y="740" as="targetPoint" />
          </mxGeometry>
        </mxCell>
        <mxCell id="DTTesXFCx7pwk1oEU2a9-7" value="Feita Para" style="rhombus;whiteSpace=wrap;html=1;" vertex="1" parent="1">
          <mxGeometry x="80" y="720" width="80" height="80" as="geometry" />
        </mxCell>
        <mxCell id="DTTesXFCx7pwk1oEU2a9-8" value="N" style="text;html=1;align=center;verticalAlign=middle;resizable=0;points=[];autosize=1;strokeColor=none;fillColor=none;" vertex="1" parent="1">
          <mxGeometry x="250" y="734" width="30" height="30" as="geometry" />
        </mxCell>
        <mxCell id="DTTesXFCx7pwk1oEU2a9-9" value="1" style="text;html=1;align=center;verticalAlign=middle;resizable=0;points=[];autosize=1;strokeColor=none;fillColor=none;" vertex="1" parent="1">
          <mxGeometry x="-2" y="649" width="30" height="30" as="geometry" />
        </mxCell>
        <mxCell id="DTTesXFCx7pwk1oEU2a9-10" value="" style="endArrow=none;html=1;rounded=0;entryX=0;entryY=0.5;entryDx=0;entryDy=0;exitX=1;exitY=0.5;exitDx=0;exitDy=0;" edge="1" parent="1" source="x13av6bWeKEdBmR4gBfC-1" target="DTTesXFCx7pwk1oEU2a9-19">
          <mxGeometry width="50" height="50" relative="1" as="geometry">
            <mxPoint x="330" y="880" as="sourcePoint" />
            <mxPoint x="380" y="830" as="targetPoint" />
          </mxGeometry>
        </mxCell>
        <mxCell id="DTTesXFCx7pwk1oEU2a9-11" value="Contém" style="rhombus;whiteSpace=wrap;html=1;" vertex="1" parent="1">
          <mxGeometry x="460" y="720" width="80" height="80" as="geometry" />
        </mxCell>
        <mxCell id="DTTesXFCx7pwk1oEU2a9-12" value="N" style="text;html=1;align=center;verticalAlign=middle;resizable=0;points=[];autosize=1;strokeColor=none;fillColor=none;" vertex="1" parent="1">
          <mxGeometry x="393" y="737" width="30" height="30" as="geometry" />
        </mxCell>
        <mxCell id="DTTesXFCx7pwk1oEU2a9-13" value="M" style="text;html=1;align=center;verticalAlign=middle;resizable=0;points=[];autosize=1;strokeColor=none;fillColor=none;" vertex="1" parent="1">
          <mxGeometry x="581" y="739" width="30" height="30" as="geometry" />
        </mxCell>
        <mxCell id="DTTesXFCx7pwk1oEU2a9-14" value="" style="endArrow=none;html=1;rounded=0;edgeStyle=orthogonalEdgeStyle;entryX=0.5;entryY=1;entryDx=0;entryDy=0;exitX=0.25;exitY=0;exitDx=0;exitDy=0;" edge="1" parent="1" source="x13av6bWeKEdBmR4gBfC-1" target="x13av6bWeKEdBmR4gBfC-8">
          <mxGeometry width="50" height="50" relative="1" as="geometry">
            <mxPoint x="330" y="600" as="sourcePoint" />
            <mxPoint x="380" y="550" as="targetPoint" />
            <Array as="points">
              <mxPoint x="310" y="660" />
              <mxPoint x="130" y="660" />
            </Array>
          </mxGeometry>
        </mxCell>
        <mxCell id="DTTesXFCx7pwk1oEU2a9-15" value="Processa" style="rhombus;whiteSpace=wrap;html=1;" vertex="1" parent="1">
          <mxGeometry x="150" y="620" width="80" height="80" as="geometry" />
        </mxCell>
        <mxCell id="DTTesXFCx7pwk1oEU2a9-16" value="Data" style="ellipse;whiteSpace=wrap;html=1;" vertex="1" parent="1">
          <mxGeometry x="200" y="580" width="70" height="40" as="geometry" />
        </mxCell>
        <mxCell id="DTTesXFCx7pwk1oEU2a9-17" value="" style="endArrow=none;html=1;rounded=0;entryX=0.5;entryY=1;entryDx=0;entryDy=0;exitX=1;exitY=0;exitDx=0;exitDy=0;" edge="1" parent="1" source="DTTesXFCx7pwk1oEU2a9-15" target="DTTesXFCx7pwk1oEU2a9-16">
          <mxGeometry width="50" height="50" relative="1" as="geometry">
            <mxPoint x="330" y="600" as="sourcePoint" />
            <mxPoint x="380" y="550" as="targetPoint" />
          </mxGeometry>
        </mxCell>
        <mxCell id="DTTesXFCx7pwk1oEU2a9-18" value="" style="endArrow=none;html=1;rounded=0;exitX=1;exitY=0.677;exitDx=0;exitDy=0;entryX=0.134;entryY=0.636;entryDx=0;entryDy=0;entryPerimeter=0;exitPerimeter=0;" edge="1" parent="1" source="x13av6bWeKEdBmR4gBfC-1" target="DTTesXFCx7pwk1oEU2a9-11">
          <mxGeometry width="50" height="50" relative="1" as="geometry">
            <mxPoint x="330" y="600" as="sourcePoint" />
            <mxPoint x="450" y="780" as="targetPoint" />
          </mxGeometry>
        </mxCell>
        <mxCell id="DTTesXFCx7pwk1oEU2a9-19" value="" style="swimlane;startSize=0;" vertex="1" parent="1">
          <mxGeometry x="604" y="725" width="132" height="71" as="geometry" />
        </mxCell>
        <mxCell id="DTTesXFCx7pwk1oEU2a9-20" value="" style="endArrow=none;html=1;rounded=0;entryX=0.5;entryY=1;entryDx=0;entryDy=0;exitX=0.75;exitY=0;exitDx=0;exitDy=0;" edge="1" parent="1" source="x13av6bWeKEdBmR4gBfC-8" target="x13av6bWeKEdBmR4gBfC-27">
          <mxGeometry width="50" height="50" relative="1" as="geometry">
            <mxPoint x="90" y="620" as="sourcePoint" />
            <mxPoint x="140" y="570" as="targetPoint" />
          </mxGeometry>
        </mxCell>
        <mxCell id="DTTesXFCx7pwk1oEU2a9-21" value="" style="rhombus;whiteSpace=wrap;html=1;" vertex="1" parent="1">
          <mxGeometry x="860" y="647" width="80" height="80" as="geometry" />
        </mxCell>
        <mxCell id="DTTesXFCx7pwk1oEU2a9-22" value="Produzido&lt;div&gt;por&lt;/div&gt;" style="rhombus;whiteSpace=wrap;html=1;fillColor=none;" vertex="1" parent="1">
          <mxGeometry x="850" y="640" width="100" height="95.5" as="geometry" />
        </mxCell>
        <mxCell id="DTTesXFCx7pwk1oEU2a9-24" value="" style="endArrow=none;html=1;rounded=0;edgeStyle=orthogonalEdgeStyle;entryX=0.5;entryY=1;entryDx=0;entryDy=0;exitX=1;exitY=0.75;exitDx=0;exitDy=0;" edge="1" parent="1" source="DTTesXFCx7pwk1oEU2a9-19" target="DTTesXFCx7pwk1oEU2a9-22">
          <mxGeometry width="50" height="50" relative="1" as="geometry">
            <mxPoint x="630" y="710" as="sourcePoint" />
            <mxPoint x="680" y="660" as="targetPoint" />
          </mxGeometry>
        </mxCell>
        <mxCell id="DTTesXFCx7pwk1oEU2a9-25" value="" style="endArrow=none;html=1;rounded=0;edgeStyle=orthogonalEdgeStyle;exitX=1;exitY=0.75;exitDx=0;exitDy=0;entryX=0.405;entryY=0.897;entryDx=0;entryDy=0;entryPerimeter=0;" edge="1" parent="1" target="DTTesXFCx7pwk1oEU2a9-22">
          <mxGeometry width="50" height="50" relative="1" as="geometry">
            <mxPoint x="736" y="768.52" as="sourcePoint" />
            <mxPoint x="890" y="730" as="targetPoint" />
          </mxGeometry>
        </mxCell>
        <mxCell id="DTTesXFCx7pwk1oEU2a9-26" value="N" style="text;html=1;align=center;verticalAlign=middle;resizable=0;points=[];autosize=1;strokeColor=none;fillColor=none;" vertex="1" parent="1">
          <mxGeometry x="730" y="745" width="30" height="30" as="geometry" />
        </mxCell>
        <mxCell id="DTTesXFCx7pwk1oEU2a9-28" value="" style="endArrow=none;html=1;rounded=0;edgeStyle=orthogonalEdgeStyle;entryX=0.5;entryY=1;entryDx=0;entryDy=0;exitX=0.5;exitY=0;exitDx=0;exitDy=0;" edge="1" parent="1" source="DTTesXFCx7pwk1oEU2a9-22" target="x13av6bWeKEdBmR4gBfC-6">
          <mxGeometry width="50" height="50" relative="1" as="geometry">
            <mxPoint x="310" y="600" as="sourcePoint" />
            <mxPoint x="360" y="550" as="targetPoint" />
          </mxGeometry>
        </mxCell>
        <mxCell id="DTTesXFCx7pwk1oEU2a9-29" value="N" style="text;html=1;align=center;verticalAlign=middle;resizable=0;points=[];autosize=1;strokeColor=none;fillColor=none;" vertex="1" parent="1">
          <mxGeometry x="286" y="705.5" width="30" height="30" as="geometry" />
        </mxCell>
        <mxCell id="DTTesXFCx7pwk1oEU2a9-30" value="1" style="text;html=1;align=center;verticalAlign=middle;resizable=0;points=[];autosize=1;strokeColor=none;fillColor=none;" vertex="1" parent="1">
          <mxGeometry x="123" y="532" width="30" height="30" as="geometry" />
        </mxCell>
        <mxCell id="DTTesXFCx7pwk1oEU2a9-31" value="1" style="text;html=1;align=center;verticalAlign=middle;resizable=0;points=[];autosize=1;strokeColor=none;fillColor=none;" vertex="1" parent="1">
          <mxGeometry x="742" y="550" width="30" height="30" as="geometry" />
        </mxCell>
        <mxCell id="DTTesXFCx7pwk1oEU2a9-32" value="Nome" style="ellipse;whiteSpace=wrap;html=1;" vertex="1" parent="1">
          <mxGeometry x="-100" y="704" width="50" height="25" as="geometry" />
        </mxCell>
        <mxCell id="DTTesXFCx7pwk1oEU2a9-33" value="" style="endArrow=none;html=1;rounded=0;entryX=0.5;entryY=0;entryDx=0;entryDy=0;exitX=0.25;exitY=1;exitDx=0;exitDy=0;" edge="1" parent="1" source="x13av6bWeKEdBmR4gBfC-4" target="DTTesXFCx7pwk1oEU2a9-32">
          <mxGeometry width="50" height="50" relative="1" as="geometry">
            <mxPoint x="-45" y="647" as="sourcePoint" />
            <mxPoint x="-110" y="687" as="targetPoint" />
          </mxGeometry>
        </mxCell>
        <mxCell id="DTTesXFCx7pwk1oEU2a9-34" value="" style="endArrow=none;dashed=1;html=1;rounded=0;" edge="1" parent="1">
          <mxGeometry width="50" height="50" relative="1" as="geometry">
            <mxPoint x="743" y="860" as="sourcePoint" />
            <mxPoint x="773" y="860" as="targetPoint" />
          </mxGeometry>
        </mxCell>
        <mxCell id="DTTesXFCx7pwk1oEU2a9-35" value="" style="endArrow=none;dashed=1;html=1;rounded=0;entryX=1;entryY=1;entryDx=0;entryDy=0;" edge="1" parent="1" target="x13av6bWeKEdBmR4gBfC-18">
          <mxGeometry width="50" height="50" relative="1" as="geometry">
            <mxPoint x="735" y="874" as="sourcePoint" />
            <mxPoint x="765" y="874" as="targetPoint" />
          </mxGeometry>
        </mxCell>
      </root>
    </mxGraphModel>
  </diagram>
</mxfile>
